<mxfile host="app.diagrams.net" agent="Mozilla/5.0 (Windows NT 10.0; Win64; x64) AppleWebKit/537.36 (KHTML, like Gecko) Chrome/131.0.0.0 Safari/537.36" version="24.7.17">
  <diagram id="C5RBs43oDa-KdzZeNtuy" name="Page-1">
    <mxGraphModel dx="1838" dy="953" grid="1" gridSize="10" guides="1" tooltips="1" connect="1" arrows="1" fold="1" page="1" pageScale="1" pageWidth="827" pageHeight="1169" math="0" shadow="0">
      <root>
        <mxCell id="WIyWlLk6GJQsqaUBKTNV-0" />
        <mxCell id="WIyWlLk6GJQsqaUBKTNV-1" parent="WIyWlLk6GJQsqaUBKTNV-0" />
        <mxCell id="SCoOSRMmNlyYM5hMaf-7-17" style="edgeStyle=orthogonalEdgeStyle;rounded=0;orthogonalLoop=1;jettySize=auto;html=1;exitX=0.5;exitY=1;exitDx=0;exitDy=0;exitPerimeter=0;entryX=0.5;entryY=0;entryDx=0;entryDy=0;" edge="1" parent="WIyWlLk6GJQsqaUBKTNV-1" source="SCoOSRMmNlyYM5hMaf-7-1" target="SCoOSRMmNlyYM5hMaf-7-3">
          <mxGeometry relative="1" as="geometry" />
        </mxCell>
        <mxCell id="SCoOSRMmNlyYM5hMaf-7-1" value="" style="strokeWidth=2;html=1;shape=mxgraph.flowchart.start_1;whiteSpace=wrap;" vertex="1" parent="WIyWlLk6GJQsqaUBKTNV-1">
          <mxGeometry x="290" y="70" width="100" height="60" as="geometry" />
        </mxCell>
        <mxCell id="SCoOSRMmNlyYM5hMaf-7-5" style="edgeStyle=orthogonalEdgeStyle;rounded=0;orthogonalLoop=1;jettySize=auto;html=1;entryX=0.5;entryY=0;entryDx=0;entryDy=0;" edge="1" parent="WIyWlLk6GJQsqaUBKTNV-1" source="SCoOSRMmNlyYM5hMaf-7-3" target="SCoOSRMmNlyYM5hMaf-7-4">
          <mxGeometry relative="1" as="geometry" />
        </mxCell>
        <mxCell id="SCoOSRMmNlyYM5hMaf-7-3" value="填写账号" style="rounded=1;whiteSpace=wrap;html=1;absoluteArcSize=1;arcSize=14;strokeWidth=2;" vertex="1" parent="WIyWlLk6GJQsqaUBKTNV-1">
          <mxGeometry x="290" y="170" width="100" height="40" as="geometry" />
        </mxCell>
        <mxCell id="SCoOSRMmNlyYM5hMaf-7-7" style="edgeStyle=orthogonalEdgeStyle;rounded=0;orthogonalLoop=1;jettySize=auto;html=1;exitX=0.5;exitY=1;exitDx=0;exitDy=0;" edge="1" parent="WIyWlLk6GJQsqaUBKTNV-1" source="SCoOSRMmNlyYM5hMaf-7-4" target="SCoOSRMmNlyYM5hMaf-7-6">
          <mxGeometry relative="1" as="geometry" />
        </mxCell>
        <mxCell id="SCoOSRMmNlyYM5hMaf-7-4" value="填写密码和确认密码（必须相同）" style="rounded=1;whiteSpace=wrap;html=1;absoluteArcSize=1;arcSize=14;strokeWidth=2;" vertex="1" parent="WIyWlLk6GJQsqaUBKTNV-1">
          <mxGeometry x="290" y="250" width="100" height="40" as="geometry" />
        </mxCell>
        <mxCell id="SCoOSRMmNlyYM5hMaf-7-6" value="填写邮箱，并点击验证码" style="rounded=1;whiteSpace=wrap;html=1;absoluteArcSize=1;arcSize=14;strokeWidth=2;" vertex="1" parent="WIyWlLk6GJQsqaUBKTNV-1">
          <mxGeometry x="290" y="330" width="100" height="60" as="geometry" />
        </mxCell>
        <mxCell id="SCoOSRMmNlyYM5hMaf-7-11" style="edgeStyle=orthogonalEdgeStyle;rounded=0;orthogonalLoop=1;jettySize=auto;html=1;exitX=0.5;exitY=1;exitDx=0;exitDy=0;exitPerimeter=0;entryX=0.5;entryY=0;entryDx=0;entryDy=0;" edge="1" parent="WIyWlLk6GJQsqaUBKTNV-1" source="SCoOSRMmNlyYM5hMaf-7-8" target="SCoOSRMmNlyYM5hMaf-7-10">
          <mxGeometry relative="1" as="geometry" />
        </mxCell>
        <mxCell id="SCoOSRMmNlyYM5hMaf-7-12" value="是" style="edgeLabel;html=1;align=center;verticalAlign=middle;resizable=0;points=[];" vertex="1" connectable="0" parent="SCoOSRMmNlyYM5hMaf-7-11">
          <mxGeometry x="-0.2133" y="-1" relative="1" as="geometry">
            <mxPoint x="-19" as="offset" />
          </mxGeometry>
        </mxCell>
        <mxCell id="SCoOSRMmNlyYM5hMaf-7-13" style="edgeStyle=orthogonalEdgeStyle;rounded=0;orthogonalLoop=1;jettySize=auto;html=1;exitX=1;exitY=0.5;exitDx=0;exitDy=0;exitPerimeter=0;entryX=1;entryY=0.5;entryDx=0;entryDy=0;" edge="1" parent="WIyWlLk6GJQsqaUBKTNV-1" source="SCoOSRMmNlyYM5hMaf-7-8" target="SCoOSRMmNlyYM5hMaf-7-6">
          <mxGeometry relative="1" as="geometry">
            <mxPoint x="480" y="360" as="targetPoint" />
            <Array as="points">
              <mxPoint x="480" y="685" />
              <mxPoint x="480" y="360" />
            </Array>
          </mxGeometry>
        </mxCell>
        <mxCell id="SCoOSRMmNlyYM5hMaf-7-14" value="否" style="edgeLabel;html=1;align=center;verticalAlign=middle;resizable=0;points=[];" vertex="1" connectable="0" parent="SCoOSRMmNlyYM5hMaf-7-13">
          <mxGeometry x="-0.9297" y="3" relative="1" as="geometry">
            <mxPoint y="-12" as="offset" />
          </mxGeometry>
        </mxCell>
        <mxCell id="SCoOSRMmNlyYM5hMaf-7-8" value="判断验证码是否有效" style="strokeWidth=2;html=1;shape=mxgraph.flowchart.decision;whiteSpace=wrap;" vertex="1" parent="WIyWlLk6GJQsqaUBKTNV-1">
          <mxGeometry x="260" y="650" width="160" height="70" as="geometry" />
        </mxCell>
        <mxCell id="SCoOSRMmNlyYM5hMaf-7-16" style="edgeStyle=orthogonalEdgeStyle;rounded=0;orthogonalLoop=1;jettySize=auto;html=1;exitX=0.5;exitY=1;exitDx=0;exitDy=0;" edge="1" parent="WIyWlLk6GJQsqaUBKTNV-1" source="SCoOSRMmNlyYM5hMaf-7-10" target="SCoOSRMmNlyYM5hMaf-7-15">
          <mxGeometry relative="1" as="geometry" />
        </mxCell>
        <mxCell id="SCoOSRMmNlyYM5hMaf-7-10" value="验证通过，账号注册成功，跳转登录界面" style="rounded=1;whiteSpace=wrap;html=1;absoluteArcSize=1;arcSize=14;strokeWidth=2;" vertex="1" parent="WIyWlLk6GJQsqaUBKTNV-1">
          <mxGeometry x="280" y="760" width="120" height="50" as="geometry" />
        </mxCell>
        <mxCell id="SCoOSRMmNlyYM5hMaf-7-15" value="" style="strokeWidth=2;html=1;shape=mxgraph.flowchart.terminator;whiteSpace=wrap;" vertex="1" parent="WIyWlLk6GJQsqaUBKTNV-1">
          <mxGeometry x="290" y="840" width="100" height="60" as="geometry" />
        </mxCell>
        <mxCell id="SCoOSRMmNlyYM5hMaf-7-22" style="edgeStyle=orthogonalEdgeStyle;rounded=0;orthogonalLoop=1;jettySize=auto;html=1;exitX=0.5;exitY=1;exitDx=0;exitDy=0;exitPerimeter=0;entryX=0.5;entryY=0;entryDx=0;entryDy=0;" edge="1" parent="WIyWlLk6GJQsqaUBKTNV-1" source="SCoOSRMmNlyYM5hMaf-7-18" target="SCoOSRMmNlyYM5hMaf-7-21">
          <mxGeometry relative="1" as="geometry" />
        </mxCell>
        <mxCell id="SCoOSRMmNlyYM5hMaf-7-23" value="是" style="edgeLabel;html=1;align=center;verticalAlign=middle;resizable=0;points=[];" vertex="1" connectable="0" parent="SCoOSRMmNlyYM5hMaf-7-22">
          <mxGeometry x="-0.128" y="1" relative="1" as="geometry">
            <mxPoint x="-21" as="offset" />
          </mxGeometry>
        </mxCell>
        <mxCell id="SCoOSRMmNlyYM5hMaf-7-25" style="edgeStyle=orthogonalEdgeStyle;rounded=0;orthogonalLoop=1;jettySize=auto;html=1;exitX=1;exitY=0.5;exitDx=0;exitDy=0;exitPerimeter=0;" edge="1" parent="WIyWlLk6GJQsqaUBKTNV-1" source="SCoOSRMmNlyYM5hMaf-7-18">
          <mxGeometry relative="1" as="geometry">
            <mxPoint x="390" y="360" as="targetPoint" />
            <Array as="points">
              <mxPoint x="480" y="465" />
              <mxPoint x="480" y="360" />
            </Array>
          </mxGeometry>
        </mxCell>
        <mxCell id="SCoOSRMmNlyYM5hMaf-7-26" value="否" style="edgeLabel;html=1;align=center;verticalAlign=middle;resizable=0;points=[];" vertex="1" connectable="0" parent="SCoOSRMmNlyYM5hMaf-7-25">
          <mxGeometry x="-0.8604" y="3" relative="1" as="geometry">
            <mxPoint y="-12" as="offset" />
          </mxGeometry>
        </mxCell>
        <mxCell id="SCoOSRMmNlyYM5hMaf-7-18" value="校验注册邮箱唯一性" style="strokeWidth=2;html=1;shape=mxgraph.flowchart.decision;whiteSpace=wrap;" vertex="1" parent="WIyWlLk6GJQsqaUBKTNV-1">
          <mxGeometry x="260" y="430" width="160" height="70" as="geometry" />
        </mxCell>
        <mxCell id="SCoOSRMmNlyYM5hMaf-7-20" style="edgeStyle=orthogonalEdgeStyle;rounded=0;orthogonalLoop=1;jettySize=auto;html=1;exitX=0.5;exitY=1;exitDx=0;exitDy=0;entryX=0.5;entryY=0;entryDx=0;entryDy=0;entryPerimeter=0;" edge="1" parent="WIyWlLk6GJQsqaUBKTNV-1" source="SCoOSRMmNlyYM5hMaf-7-6" target="SCoOSRMmNlyYM5hMaf-7-18">
          <mxGeometry relative="1" as="geometry" />
        </mxCell>
        <mxCell id="SCoOSRMmNlyYM5hMaf-7-21" value="填写收到的验证码" style="rounded=1;whiteSpace=wrap;html=1;absoluteArcSize=1;arcSize=14;strokeWidth=2;" vertex="1" parent="WIyWlLk6GJQsqaUBKTNV-1">
          <mxGeometry x="290" y="550" width="100" height="50" as="geometry" />
        </mxCell>
        <mxCell id="SCoOSRMmNlyYM5hMaf-7-27" style="edgeStyle=orthogonalEdgeStyle;rounded=0;orthogonalLoop=1;jettySize=auto;html=1;exitX=0.5;exitY=1;exitDx=0;exitDy=0;entryX=0.5;entryY=0;entryDx=0;entryDy=0;entryPerimeter=0;" edge="1" parent="WIyWlLk6GJQsqaUBKTNV-1" source="SCoOSRMmNlyYM5hMaf-7-21" target="SCoOSRMmNlyYM5hMaf-7-8">
          <mxGeometry relative="1" as="geometry" />
        </mxCell>
      </root>
    </mxGraphModel>
  </diagram>
</mxfile>
